<svg xmlns="http://www.w3.org/2000/svg" viewBox="0 0 100 100">
  <!-- Face base -->
  <ellipse cx="50" cy="52" rx="38" ry="35" fill="#C4884A"/>
  
  <!-- Ears -->
  <ellipse cx="20" cy="25" rx="12" ry="14" fill="#C4884A" stroke="#3D2914" stroke-width="2"/>
  <ellipse cx="20" cy="25" rx="7" ry="9" fill="#D4A574"/>
  <ellipse cx="80" cy="25" rx="12" ry="14" fill="#C4884A" stroke="#3D2914" stroke-width="2"/>
  <ellipse cx="80" cy="25" rx="7" ry="9" fill="#D4A574"/>
  
  <!-- Face outline -->
  <ellipse cx="50" cy="52" rx="38" ry="35" fill="none" stroke="#3D2914" stroke-width="3"/>
  
  <!-- Fur tuft -->
  <path d="M42 20 Q45 12 50 18 Q55 12 58 20" fill="#3D2914"/>
  
  <!-- Muzzle -->
  <ellipse cx="50" cy="62" rx="22" ry="18" fill="#E8D4A0"/>
  <ellipse cx="38" cy="58" rx="12" ry="10" fill="#E8D4A0"/>
  <ellipse cx="62" cy="58" rx="12" ry="10" fill="#E8D4A0"/>
  
  <!-- Whisker dots -->
  <circle cx="32" cy="58" r="2" fill="#3D2914"/>
  <circle cx="38" cy="62" r="2" fill="#3D2914"/>
  <circle cx="35" cy="55" r="2" fill="#3D2914"/>
  <circle cx="68" cy="58" r="2" fill="#3D2914"/>
  <circle cx="62" cy="62" r="2" fill="#3D2914"/>
  <circle cx="65" cy="55" r="2" fill="#3D2914"/>
  
  <!-- Whiskers -->
  <line x1="15" y1="50" x2="30" y2="55" stroke="#3D2914" stroke-width="2" stroke-linecap="round"/>
  <line x1="12" y1="58" x2="28" y2="60" stroke="#3D2914" stroke-width="2" stroke-linecap="round"/>
  <line x1="15" y1="66" x2="30" y2="64" stroke="#3D2914" stroke-width="2" stroke-linecap="round"/>
  <line x1="85" y1="50" x2="70" y2="55" stroke="#3D2914" stroke-width="2" stroke-linecap="round"/>
  <line x1="88" y1="58" x2="72" y2="60" stroke="#3D2914" stroke-width="2" stroke-linecap="round"/>
  <line x1="85" y1="66" x2="70" y2="64" stroke="#3D2914" stroke-width="2" stroke-linecap="round"/>
  
  <!-- Eyes -->
  <ellipse cx="35" cy="42" rx="8" ry="10" fill="#3D2914"/>
  <ellipse cx="65" cy="42" rx="8" ry="10" fill="#3D2914"/>
  <circle cx="37" cy="40" r="3" fill="#F5E6D3"/>
  <circle cx="67" cy="40" r="3" fill="#F5E6D3"/>
  
  <!-- Eyebrows -->
  <path d="M25 32 Q35 28 42 34" fill="none" stroke="#3D2914" stroke-width="3" stroke-linecap="round"/>
  <path d="M75 32 Q65 28 58 34" fill="none" stroke="#3D2914" stroke-width="3" stroke-linecap="round"/>
  
  <!-- Nose -->
  <ellipse cx="50" cy="52" rx="8" ry="6" fill="#3D2914"/>
  <ellipse cx="48" cy="50" r="2" fill="#5D4930"/>
  
  <!-- Mouth -->
  <path d="M50 58 L50 72" stroke="#3D2914" stroke-width="2"/>
  <path d="M35 68 Q50 78 65 68" fill="none" stroke="#3D2914" stroke-width="3" stroke-linecap="round"/>
  
  <!-- Teeth -->
  <rect x="44" y="72" width="5" height="10" rx="1" fill="#F5E6D3" stroke="#3D2914" stroke-width="1"/>
  <rect x="51" y="72" width="5" height="10" rx="1" fill="#F5E6D3" stroke="#3D2914" stroke-width="1"/>
  
  <!-- Tongue -->
  <ellipse cx="50" cy="82" rx="6" ry="4" fill="#C75050"/>
</svg>
